<svg width="125" height="37" viewBox="0 0 125 37" xmlns="http://www.w3.org/2000/svg">
  <g fill-rule="nonzero" fill="none">
    <path fill="#33475B" d="M13.457 6.794v9.936H4.332V6.794H0v23.717h4.332v-9.613h9.125v9.613h4.332V6.794zM31.653 22.845a3.584 3.584 0 0 1-7.168 0V12.686h-4.11v10.159a7.686 7.686 0 0 0 15.372 0V12.686h-4.094v10.159zM62.098 13.733c0-2.082 1.377-2.742 2.886-2.742 1.217 0 2.823.925 3.874 2.048l2.691-3.171c-1.343-1.817-4.069-3.074-6.3-3.074-4.457 0-7.68 2.611-7.68 6.939 0 8.03 9.814 5.482 9.814 9.976 0 1.385-1.346 2.61-2.887 2.61-2.43 0-3.218-1.188-4.334-2.445l-2.986 3.105c1.91 2.346 4.266 3.536 7.089 3.536 4.234 0 7.64-2.642 7.64-6.772 0-8.915-9.814-6.145-9.814-10.01M122.814 26.723c-2.428 0-3.118-1.051-3.118-2.66v-7.121h3.774v-3.608h-3.774v-4.76l-4.167 1.87v14.504c0 3.71 2.56 5.58 6.07 5.58.551.01 1.102-.034 1.644-.131l1.016-3.742c-.458.031-.985.063-1.445.063M47.268 26.391a4.67 4.67 0 1 1 0-9.339 4.67 4.67 0 0 1 0 9.34m.025-13.587c-2.035 0-3.455.59-4.828 1.938V6.937h-4.116v14.469c0 5.416 3.916 9.126 8.316 9.126 4.882 0 9.176-3.776 9.176-8.861 0-5.022-3.952-8.864-8.548-8.864M88.083 21.404a4.67 4.67 0 1 1-9.339 0 4.67 4.67 0 0 1 9.34 0m3.896.05c0-5.094-4.285-8.861-9.175-8.861-4.4 0-8.316 3.71-8.316 9.127v14.477h4.115V28.38c1.372 1.346 2.794 1.938 4.827 1.938 4.595 0 8.547-3.84 8.547-8.864"/>
    <path d="M103.858 25.988a4.602 4.602 0 1 1 0-9.203 4.602 4.602 0 0 1 0 9.203m1.377-13.46V8.434a3.15 3.15 0 0 0 1.817-2.84V5.5a3.156 3.156 0 0 0-3.147-3.148h-.096a3.156 3.156 0 0 0-3.148 3.148v.095a3.15 3.15 0 0 0 1.817 2.84v4.092a8.925 8.925 0 0 0-4.245 1.868L86.997 5.652c.08-.288.123-.585.127-.884a3.551 3.551 0 1 0-3.555 3.546 3.51 3.51 0 0 0 1.755-.478l11.048 8.601a8.953 8.953 0 0 0 .138 10.095l-3.362 3.361a2.89 2.89 0 0 0-.835-.135 2.919 2.919 0 1 0 2.919 2.918 2.863 2.863 0 0 0-.136-.834l3.326-3.326a8.967 8.967 0 0 0 12.57-1.683 8.967 8.967 0 0 0-5.757-14.306" fill="#FF7A59"/>
  </g>
</svg>
